<svg width="264" height="280" xmlns="http://www.w3.org/2000/svg" xmlns:xlink="http://www.w3.org/1999/xlink"><defs><path d="M124 144.611V163h4c39.765 0 72 32.235 72 72v9H0v-9c0-39.765 32.235-72 72-72h4v-18.389c-17.237-8.189-29.628-24.924-31.695-44.73C38.48 99.058 34 94.052 34 88V74c0-5.946 4.325-10.882 10-11.834V56c0-30.928 25.072-56 56-56s56 25.072 56 56v6.166c5.675.952 10 5.888 10 11.834v14c0 6.052-4.48 11.058-10.305 11.881-2.067 19.806-14.458 36.541-31.695 44.73Z" id="a"/></defs><g fill="none" fill-rule="evenodd"><g mask="url(#react-mask-5)"><g transform="translate(32 36)"><mask id="b" fill="#fff"><use xlink:href="#a"/></mask><use fill="#D0C6AC" xlink:href="#a"/><g mask="url(#b)" fill="#FFDBB4"><path d="M0 0h264v280H0z"/></g><path d="M156 79v23c0 30.928-25.072 56-56 56s-56-25.072-56-56V79v15c0 30.928 25.072 56 56 56s56-25.072 56-56V79Z" fill-opacity=".1" fill="#000" mask="url(#b)"/></g><g transform="translate(0 170)"><defs><path d="M165.624 29.268C202.76 32.138 232 63.18 232 101.052V110H32v-8.948c0-38.217 29.775-69.48 67.393-71.855A14.107 14.107 0 0 0 99 32.5C99 44.374 113.998 54 132.5 54c18.502 0 33.5-9.626 33.5-21.5 0-1.098-.128-2.178-.376-3.232Z" id="c"/></defs><mask id="d" fill="#fff"><use xlink:href="#c"/></mask><use fill="#E6E6E6" xlink:href="#c"/><g mask="url(#d)" fill="#FFDEB5"><path d="M0 0h264v110H0z"/></g><g mask="url(#d)" fill="#FFF"><path d="M164.685 71.403c-1.393-6.431-6.21-10.15-12.5-11.586-2.526-.577-10.913-2.387-9.607 2.408.593 2.172.263 3.964-1.553 5.766-1.77 1.755-5.231 2.2-6.952-.011-1.474-1.895.427-4.721-.721-6.567-.446-.717-1.216-1.083-2.028-.732-1.141.494-.534 1.555-1.073 2.318-.849 1.203-1.245.826-2.01-.373-.48-.754-.008-1.575-1.246-1.897-1.433-.372-1.903.828-2.032 1.923-.082.687.322 1.792.336 2.488.027 1.364-.09 3.323-.725 4.529-1.125 2.137-2.704 1.453-4.383.096-1.98-1.602-2.561-3.385-2.178-5.817.459-2.917.292-5.709-3.28-3.884-5.02 2.564-9.68 7.135-12.588 11.919-2.445 4.02-4.37 8.893-2.203 13.473 2.21 4.675 5.862 8.69 10.966 9.883 1.321.31 5.092 1.811 6.345.552 1.947-1.957-2.548-3.783-3.435-4.975-1.258-1.69-2.337-4.915-.957-6.822 1.76-2.427 3.6-1.074 5.045.644 1.136 1.348 2.75 4.826 4.506 2.022 1.21-1.931 1.101-5.102 4.4-3.717 4.715 1.978 4.86 11.112 5.7 15.291.367 1.83 2.035 4.064 3.47 1.525.79-1.396.364-4.421.22-5.863-.296-2.985-1.08-5.92-.11-8.877.562-1.71 2.001-4.16 4.13-2.844 1.725 1.066 1.006 5.816 3.353 5.807 2.066-.007 1.502-3.791 2.603-5.039 1.68-1.904 4.916-.999 5.91 1.249 1.336 3.025-2.203 5.126-2.044 7.785.154 2.591 3.494 1.58 4.89.923 2.872-1.35 5.119-3.853 6.676-6.571 2.407-4.204 4.125-10.222 3.075-15.026"/></g></g><g fill="#000"><path d="M118 150c0 5.372 6.158 9 14 9s14-3.628 14-9c0-1.105-.95-2-2-2-1.293 0-1.87.905-2 2-1.242 2.938-4.317 4.716-10 5-5.683-.284-8.758-2.062-10-5-.13-1.095-.707-2-2-2-1.05 0-2 .895-2 2Z" fill-opacity=".6" fill-rule="nonzero"/><path d="M120 130c0 4.418 5.373 8 12 8s12-3.582 12-8" fill-opacity=".16"/><g fill-opacity=".6"><path d="M103.241 110.346a6 6 0 1 0 10.699 2.8 1.998 1.998 0 0 0-.125-.739 7.509 7.509 0 0 0-.144-.372 6.007 6.007 0 0 0-1.646-2.484c-2.126-2.234-5.519-3.551-9.027-3.551-4.834 0-8.991 2.649-10.838 6.447-.54 1.111.387 1.853 1.278 1.125 2.436-1.993 5.82-3.228 9.56-3.228.08 0 .162 0 .243.002ZM161.241 110.346a6 6 0 1 0 10.699 2.8 1.998 1.998 0 0 0-.125-.739 7.509 7.509 0 0 0-.144-.372 6.007 6.007 0 0 0-1.646-2.484c-2.126-2.234-5.519-3.551-9.027-3.551-4.834 0-8.991 2.649-10.838 6.447-.54 1.111.387 1.853 1.278 1.125 2.436-1.993 5.82-3.228 9.56-3.228.08 0 .162 0 .243.002Z"/></g><g fill-opacity=".6"><path d="M102.547 88.148c-5.807.269-15.195 4.488-14.953 10.344.008.192.29.276.427.129 2.755-2.96 22.316-5.95 29.205-4.365.63.145 1.11-.477.71-.927-3.422-3.848-10.186-5.426-15.389-5.18M162.453 88.148c5.807.269 15.195 4.488 14.953 10.344-.008.192-.29.276-.427.129-2.755-2.96-22.316-5.95-29.205-4.365-.63.145-1.11-.477-.71-.927 3.422-3.848 10.186-5.426 15.389-5.18"/></g></g><defs><path id="e" d="M0 0h264v280H0z"/><path d="M156 180.611c17.53-8.328 30.048-25.496 31.791-45.744C193.57 134.002 198 129.02 198 123v-13c0-5.946-4.325-10.882-10-11.834V92c0-30.928-25.072-56-56-56S76 61.072 76 92v6.166c-5.675.952-10 5.888-10 11.834v13c0 6.019 4.43 11.002 10.209 11.867 1.743 20.248 14.26 37.416 31.791 45.744V199h-4c-39.765 0-72 32.235-72 72v9h200v-9c0-39.765-32.235-72-72-72h-4v-18.389ZM0 0h264v280H0V0Z" id="i"/><path d="M83.972 55.817C107.404 69.414 145.115 82.111 139 138c19.377-5.64 29.044-21.199 29-46.676C167.918 44.148 115.85 0 86 0c-.674 0-1.344.03-2.008.088A22.542 22.542 0 0 0 82 0C52.074 0 .08 44.148 0 91.324-.044 117.44 9.622 132.999 29 138c-6.138-55.889 31.51-68.586 54.972-82.183Z" id="j"/></defs><mask id="f" fill="#fff"><use xlink:href="#e"/></mask><g mask="url(#f)"><g transform="translate(48 72)"><defs><path d="M65.18 77.737c2.183-1.632 15.227-2.258 17.578-3.648.734-.434 1.303-.873 1.742-1.309.439.436 1.009.875 1.742 1.31 2.351 1.389 15.395 2.015 17.578 3.647 2.21 1.654 3.824 5.448 3.647 8.414-.212 3.56-4.106 12.052-13.795 13.03-2.114-2.353-5.435-3.87-9.172-3.87-3.737 0-7.058 1.517-9.172 3.87-9.69-.978-13.583-9.47-13.795-13.03-.176-2.966 1.437-6.76 3.647-8.414M65.845 94.901l.017.007-.017-.007m79.018-38.916c-.389-5.955-1.585-11.833-2.629-17.699-.281-1.579-1.81-12.286-2.5-12.286-.232 9.11-1.032 18.08-2.064 27.14-.309 2.708-.632 5.416-.845 8.134-.171 2.196.135 4.848-.397 6.972-.679 2.706-4.08 5.232-6.725 6.165-6.6 2.326-12.105-7.303-17.742-10.12-7.318-3.656-19.897-4.527-27.38.239-7.645-4.766-20.224-3.895-27.542-.239-5.637 2.817-11.142 12.446-17.742 10.12-2.645-.933-6.047-3.459-6.725-6.165-.532-2.124-.226-4.776-.397-6.972-.213-2.718-.536-5.426-.845-8.135C30.298 44.08 29.497 35.11 29.265 26c-.689 0-2.218 10.707-2.5 12.286-1.043 5.866-2.24 11.744-2.627 17.7-.4 6.119.077 12.181 1.332 18.177.599 2.865 1.299 5.713 2.049 8.541.834 3.143-.32 9.262.053 12.488.707 6.104 3.582 18.008 6.811 23.259 1.561 2.538 3.39 4.123 5.433 6.168 1.967 1.97 2.788 5.021 4.91 7.118 3.956 3.908 9.72 6.234 15.64 6.806C65.677 143.05 74.506 146 84.5 146c9.995 0 18.823-2.95 24.135-7.457 5.919-.572 11.683-2.898 15.64-6.806 2.121-2.097 2.942-5.149 4.909-7.118 2.042-2.045 3.872-3.63 5.433-6.168 3.229-5.251 6.104-17.155 6.81-23.259.374-3.226-.78-9.345.054-12.488.75-2.828 1.45-5.676 2.05-8.54 1.254-5.997 1.73-12.06 1.332-18.179Z" id="g"/></defs><mask id="h" fill="#fff"><use xlink:href="#g"/></mask><use fill="#5E7AA9" xlink:href="#g"/><g mask="url(#h)" fill="#724133"><path d="M-32 0h264v244H-32z"/></g></g><path d="M74.53 97.5c-1-2.41-1.53-4.92-1.53-7.5 0-18.225 26.415-33 59-33s59 14.775 59 33c0 2.58-.53 5.09-1.53 7.5C183.398 82.888 159.972 72 132 72c-27.972 0-51.398 10.888-57.47 25.5Z" fill="#EDECE3"/><g transform="translate(48 3)"><mask id="k" fill="#fff"><use xlink:href="#j"/></mask><use fill="#124C74" xlink:href="#j"/><g mask="url(#k)" fill="#FF488E"><path d="M0 0h264v280H0z"/></g></g><path d="M48.011 96.012c.37 25.1 10.033 40.096 28.99 44.988-19.379-4.71-29.045-19.368-29-43.97 0-.34.003-.679.01-1.018Zm104.635-65.544c.744 5.727-.52 12.421-4.646 19.668-11.153 21.43-71.439 21.868-71.666 79.544-.229-61.919 60.471-62.3 71.666-85.136 2.67-4.977 4.141-9.709 4.646-14.076Z" fill-opacity=".16" fill="#000"/><g transform="translate(61 85)"><defs><filter x="-.8%" y="-2%" width="101.5%" height="108%" filterUnits="objectBoundingBox" id="l"><feOffset dy="2" in="SourceAlpha" result="shadowOffsetOuter1"/><feColorMatrix values="0 0 0 0 0 0 0 0 0 0 0 0 0 0 0 0 0 0 0.16 0" in="shadowOffsetOuter1" result="shadowMatrixOuter1"/><feMerge><feMergeNode in="shadowMatrixOuter1"/><feMergeNode in="SourceGraphic"/></feMerge></filter></defs><g filter="url(#l)" transform="translate(5 2)" fill-rule="nonzero"><path d="M66 11.111c-11.037 0-12.63-9.084-35.33-10.37C7.987-.283.816 6.449.777 11.11c.037 4.293-1.128 15.45 13.589 28.519 14.772 15.512 29.905 10.252 35.33 5.185C55.134 42.473 61.34 21.46 66 21.48c4.66.022 10.865 20.992 16.306 23.334 5.424 5.067 20.557 10.327 35.33-5.185 14.716-13.069 13.55-24.226 13.588-28.519-.04-4.662-7.21-11.394-29.895-10.37C78.63 2.027 77.037 11.11 66 11.11Z" fill="#F4F4F4"/><path d="M55.13 21.481c.38-7.658-12.914-15.839-27.177-15.555-14.256.299-16.111 9.453-16.306 12.963-.349 8.133 8.367 26.415 24.459 25.926 16.091-.51 18.803-18.28 19.023-23.334ZM76.87 21.481c-.38-7.658 12.914-15.839 27.177-15.555 14.256.299 16.111 9.453 16.306 12.963.349 8.133-8.367 26.415-24.459 25.926-16.091-.51-18.803-18.28-19.023-23.334Z" fill="#2F383B"/></g></g></g></g></g></svg>