<svg width="264" height="280" xmlns="http://www.w3.org/2000/svg" xmlns:xlink="http://www.w3.org/1999/xlink"><defs><path d="M124 144.611V163h4c39.765 0 72 32.235 72 72v9H0v-9c0-39.765 32.235-72 72-72h4v-18.389c-17.237-8.189-29.628-24.924-31.695-44.73C38.48 99.058 34 94.052 34 88V74c0-5.946 4.325-10.882 10-11.834V56c0-30.928 25.072-56 56-56s56 25.072 56 56v6.166c5.675.952 10 5.888 10 11.834v14c0 6.052-4.48 11.058-10.305 11.881-2.067 19.806-14.458 36.541-31.695 44.73Z" id="a"/></defs><g fill="none" fill-rule="evenodd"><g mask="url(#react-mask-5)"><g transform="translate(32 36)"><mask id="b" fill="#fff"><use xlink:href="#a"/></mask><use fill="#D0C6AC" xlink:href="#a"/><g mask="url(#b)" fill="#FD9841"><path d="M0 0h264v280H0z"/></g><path d="M156 79v23c0 30.928-25.072 56-56 56s-56-25.072-56-56V79v15c0 30.928 25.072 56 56 56s56-25.072 56-56V79Z" fill-opacity=".1" fill="#000" mask="url(#b)"/></g><g transform="translate(0 170)"><defs><path d="M181.544 32.33C210.784 41.488 232 68.792 232 101.052V110H32v-8.948c0-32.655 21.739-60.232 51.534-69.05A18.001 18.001 0 0 0 83 36.348c0 16.281 22.162 29.48 49.5 29.48S182 52.629 182 36.348c0-1.363-.155-2.704-.456-4.018Z" id="c"/></defs><mask id="d" fill="#fff"><use xlink:href="#c"/></mask><use fill="#E6E6E6" xlink:href="#c"/><g mask="url(#d)" fill="#FFDEB5"><path d="M0 0h264v110H0z"/></g></g><g fill="#000"><g transform="translate(78 134)"><defs><path d="M35.118 15.128C36.176 24.62 44.226 32 54 32c9.804 0 17.874-7.426 18.892-16.96.082-.767-.775-2.04-1.85-2.04H37.088c-1.08 0-2.075 1.178-1.97 2.128Z" id="e"/></defs><mask id="f" fill="#fff"><use xlink:href="#e"/></mask><use fill-opacity=".7" xlink:href="#e"/><rect fill="#FFF" mask="url(#f)" x="39" y="2" width="31" height="16" rx="5"/><g mask="url(#f)" fill="#FF4F6D"><g transform="translate(38 24)"><circle cx="11" cy="11" r="11"/><circle cx="21" cy="11" r="11"/></g></g></g><path d="M120 130c0 4.418 5.373 8 12 8s12-3.582 12-8" fill-opacity=".16"/><g transform="translate(76 90)"><defs><path d="M14 14.048c9.61 0 14 4.451 14-2.486C28 4.624 21.732 0 14 0S0 4.624 0 11.562c0 6.937 4.39 2.486 14 2.486Z" id="g"/><path d="M14 14.048c9.61 0 14 4.451 14-2.486C28 4.624 21.732 0 14 0S0 4.624 0 11.562c0 6.937 4.39 2.486 14 2.486Z" id="i"/></defs><g transform="translate(16 13)"><mask id="h" fill="#fff"><use xlink:href="#g"/></mask><use fill="#FFF" xlink:href="#g"/><circle fill-opacity=".7" mask="url(#h)" cx="14" cy="10" r="6"/></g><g transform="translate(68 13)"><mask id="j" fill="#fff"><use xlink:href="#i"/></mask><use fill="#FFF" xlink:href="#i"/><circle fill-opacity=".7" mask="url(#j)" cx="14" cy="10" r="6"/></g></g><g fill-opacity=".6" fill-rule="nonzero"><path d="M91.611 97.185c4.24-5.769 6.878-5.484 13.313-.629l.67.508C110.422 100.726 112.708 102 116 102a2 2 0 1 0 0-4c-2.066 0-3.901-1.022-7.989-4.123-.375-.285-.492-.373-.678-.513-3.76-2.837-5.959-4.077-8.695-4.372-3.684-.398-7.058 1.482-10.25 5.823a2 2 0 0 0 3.223 2.37ZM172.388 97.185c-4.24-5.769-6.877-5.484-13.312-.629l-.67.508C153.578 100.726 151.292 102 148 102a2 2 0 1 1 0-4c2.066 0 3.901-1.022 7.989-4.123.375-.285.492-.373.678-.513 3.76-2.837 5.959-4.077 8.695-4.372 3.684-.398 7.058 1.482 10.25 5.823a2 2 0 0 1-3.224 2.37Z"/></g></g><defs><filter x="-3.8%" y="-6.7%" width="107.7%" height="126.7%" filterUnits="objectBoundingBox" id="m"><feOffset dy="2" in="SourceAlpha" result="shadowOffsetOuter1"/><feColorMatrix values="0 0 0 0 0 0 0 0 0 0 0 0 0 0 0 0 0 0 0.2 0" in="shadowOffsetOuter1" result="shadowMatrixOuter1"/><feMerge><feMergeNode in="shadowMatrixOuter1"/><feMergeNode in="SourceGraphic"/></feMerge></filter><filter x="-6.7%" y="-3.4%" width="113.3%" height="113.8%" filterUnits="objectBoundingBox" id="n"><feOffset dy="2" in="SourceAlpha" result="shadowOffsetOuter1"/><feColorMatrix values="0 0 0 0 0 0 0 0 0 0 0 0 0 0 0 0 0 0 0.2 0" in="shadowOffsetOuter1" result="shadowMatrixOuter1"/><feMerge><feMergeNode in="shadowMatrixOuter1"/><feMergeNode in="SourceGraphic"/></feMerge></filter><filter x="-6.7%" y="-3.4%" width="113.3%" height="113.8%" filterUnits="objectBoundingBox" id="o"><feOffset dy="2" in="SourceAlpha" result="shadowOffsetOuter1"/><feColorMatrix values="0 0 0 0 0 0 0 0 0 0 0 0 0 0 0 0 0 0 0.2 0" in="shadowOffsetOuter1" result="shadowMatrixOuter1"/><feMerge><feMergeNode in="shadowMatrixOuter1"/><feMergeNode in="SourceGraphic"/></feMerge></filter><filter x="-3.8%" y="-3.8%" width="107.7%" height="115.4%" filterUnits="objectBoundingBox" id="p"><feOffset dy="2" in="SourceAlpha" result="shadowOffsetOuter1"/><feColorMatrix values="0 0 0 0 0 0 0 0 0 0 0 0 0 0 0 0 0 0 0.2 0" in="shadowOffsetOuter1" result="shadowMatrixOuter1"/><feMerge><feMergeNode in="shadowMatrixOuter1"/><feMergeNode in="SourceGraphic"/></feMerge></filter><filter x="-2.5%" y="-2.5%" width="105%" height="110%" filterUnits="objectBoundingBox" id="q"><feOffset dy="2" in="SourceAlpha" result="shadowOffsetOuter1"/><feColorMatrix values="0 0 0 0 0 0 0 0 0 0 0 0 0 0 0 0 0 0 0.2 0" in="shadowOffsetOuter1" result="shadowMatrixOuter1"/><feMerge><feMergeNode in="shadowMatrixOuter1"/><feMergeNode in="SourceGraphic"/></feMerge></filter><filter x="-2.7%" y="-2.7%" width="105.4%" height="110.8%" filterUnits="objectBoundingBox" id="r"><feOffset dy="2" in="SourceAlpha" result="shadowOffsetOuter1"/><feColorMatrix values="0 0 0 0 0 0 0 0 0 0 0 0 0 0 0 0 0 0 0.2 0" in="shadowOffsetOuter1" result="shadowMatrixOuter1"/><feMerge><feMergeNode in="shadowMatrixOuter1"/><feMergeNode in="SourceGraphic"/></feMerge></filter><filter x="-1.8%" y="-1.9%" width="103.6%" height="107.4%" filterUnits="objectBoundingBox" id="s"><feOffset dy="2" in="SourceAlpha" result="shadowOffsetOuter1"/><feColorMatrix values="0 0 0 0 0 0 0 0 0 0 0 0 0 0 0 0 0 0 0.2 0" in="shadowOffsetOuter1" result="shadowMatrixOuter1"/><feMerge><feMergeNode in="shadowMatrixOuter1"/><feMergeNode in="SourceGraphic"/></feMerge></filter><path id="k" d="M0 0h264v280H0z"/></defs><mask id="l" fill="#fff"><use xlink:href="#k"/></mask><g mask="url(#l)"><path d="M188 97.937v.229a12.008 12.008 0 0 1 9.893 10.227A16.437 16.437 0 0 0 202 97.5c0-2.13-.404-4.166-1.138-6.035A16.453 16.453 0 0 0 206 79.5c0-5.836-3.03-10.964-7.602-13.898A16.435 16.435 0 0 0 200 58.5c0-7.635-5.185-14.058-12.227-15.941.15-.998.227-2.02.227-3.059 0-11.322-9.178-20.5-20.5-20.5-2.63 0-5.143.495-7.453 1.397C156.317 15.306 150.295 12 143.5 12c-4.262 0-8.22 1.3-11.5 3.527A20.405 20.405 0 0 0 120.5 12c-6.795 0-12.817 3.306-16.547 8.397A20.448 20.448 0 0 0 96.5 19C85.178 19 76 28.178 76 39.5c0 1.04.077 2.06.227 3.059C69.185 44.442 64 50.865 64 58.5c0 2.192.427 4.284 1.203 6.197C59.75 67.39 56 73.007 56 79.5c0 5.438 2.63 10.261 6.689 13.267A16.502 16.502 0 0 0 62 97.5c0 4.175 1.55 7.987 4.107 10.893A12.008 12.008 0 0 1 76 98.166v-.23l.083.064c2.903-47.147 48.47-30.258 55.917-56.664 7.447 26.406 53.014 9.517 55.917 56.664a7.83 7.83 0 0 0 .083-.063Zm-80 82.674v4.2a16.63 16.63 0 0 1-2.5.189c-6.82 0-12.675-4.139-15.188-10.042C81.754 174.348 75 167.213 75 158.5c0-1.471.192-2.897.554-4.254C68.858 152.144 64 145.889 64 138.5c0-3.744 1.247-7.198 3.35-9.967a12.012 12.012 0 0 0 8.859 6.334c1.743 20.248 14.26 37.416 31.791 45.744Zm48 0v4.2c.815.125 1.65.189 2.5.189 6.82 0 12.675-4.139 15.188-10.042 8.558-.61 15.312-7.745 15.312-16.458 0-1.471-.192-2.897-.554-4.254C195.142 152.144 200 145.889 200 138.5c0-3.744-1.247-7.198-3.35-9.967a12.012 12.012 0 0 1-8.859 6.334c-1.743 20.248-14.26 37.416-31.791 45.744Z" fill="#1F3540"/><g filter="url(#m)" opacity=".9" transform="scale(1 -1) rotate(-20 -104.666 -519.066)" fill-rule="nonzero"><path d="M3.611 10S1.95 0 13 0c7.222 0 12.278 5.714 12.278 5.714s-5.417 8.572-13.722 8.572C5.056 14.286 3.61 10 3.61 10Z" fill="#5DD362"/><path d="M25.278 5.714s-5.417 8.572-13.722 8.572c-4.334 0-6.428-1.929-7.367-3.215-2.095 1.786-2.817 3.429-2.817 3.5-.072.286-.36.429-.65.429-.072 0-.216 0-.289-.071-.36-.143-.505-.572-.36-.929.071-.214 1.877-4.143 7.366-6.714 7.944-4.143 17.839-1.572 17.839-1.572Z" fill="#42BC53"/></g><g filter="url(#n)" transform="rotate(60 77.13 149.592)"><path d="M15 12C15 5.9 9 0 9 0S1.7 4.3 1 13c-.7 8.7 5.8 10.7 5.8 10.7S15 20.8 15 12Z" fill="#5DD362"/><path d="M8 29c.1 0 .2 0 .3-.1.5-.2.8-.8.6-1.3-.5-1.5-.9-2.9-1.1-4.4C10 22.2 15 18.9 15 12 15 5.9 9 0 9 0s-.4 1.1-1 3c-.2.5-5.2 13.6-.9 25.3.1.4.5.7.9.7Z" fill="#42BC53"/></g><g filter="url(#o)" transform="rotate(-120 64.465 11.775)"><path d="M15 12C15 5.9 9 0 9 0S1.7 4.3 1 13c-.7 8.7 5.8 10.7 5.8 10.7S15 20.8 15 12Z" fill="#5DD362"/><path d="M8 29c.1 0 .2 0 .3-.1.5-.2.8-.8.6-1.3-.5-1.5-.9-2.9-1.1-4.4C10 22.2 15 18.9 15 12 15 5.9 9 0 9 0s-.4 1.1-1 3c-.2.5-5.2 13.6-.9 25.3.1.4.5.7.9.7Z" fill="#42BC53"/></g><g filter="url(#p)" transform="matrix(-1 0 0 1 92 29)"><path d="M24.424 20.956a5.168 5.168 0 0 0 .997-3.853 5.165 5.165 0 0 0-2.02-3.43c-.299-.225-.693-.41-1.141-.567.453-.141.854-.313 1.16-.527a5.206 5.206 0 0 0 1.277-7.243 5.206 5.206 0 0 0-7.242-1.277c-.306.215-.604.533-.893.911.006-.475-.033-.909-.143-1.267a5.164 5.164 0 0 0-2.532-3.07A5.169 5.169 0 0 0 9.926.25a5.207 5.207 0 0 0-3.453 6.493c.11.356.314.735.582 1.124-.448-.151-.869-.243-1.241-.25a5.206 5.206 0 0 0-5.29 5.11 5.177 5.177 0 0 0 .937 3.066 5.198 5.198 0 0 0 4.171 2.223c.373.006.796-.071 1.25-.206-.283.38-.5.75-.621 1.103a5.196 5.196 0 0 0 .662 4.68 5.171 5.171 0 0 0 2.561 1.93 5.206 5.206 0 0 0 6.61-3.225c.12-.352.178-.779.19-1.252.273.386.56.708.857.932a5.167 5.167 0 0 0 3.853.997 5.163 5.163 0 0 0 3.43-2.02Z" fill="#4ACAD3" fill-rule="nonzero"/><path d="M11.178 8.64a1.444 1.444 0 1 1 2.763-.845c.233.763-.232 4.182-.232 4.182s-2.298-2.574-2.53-3.337Zm-2.242 5.797a1.444 1.444 0 1 1 .05-2.888c.798.014 3.905 1.513 3.905 1.513s-3.158 1.389-3.955 1.375Zm6.057-2.018s1.738-2.98 2.392-3.438a1.444 1.444 0 1 1 1.657 2.366c-.654.458-4.049 1.072-4.049 1.072Zm-3.073 6.838a1.444 1.444 0 0 1-.895-1.836c.26-.755 2.646-3.246 2.646-3.246s.345 3.432.086 4.187a1.445 1.445 0 0 1-1.837.895Zm5.32-1.96c-.638-.48-2.27-3.52-2.27-3.52s3.37.732 4.008 1.212a1.444 1.444 0 1 1-1.738 2.307Z" fill="#FFF"/></g><g filter="url(#q)" transform="translate(86 16)"><path d="m30.526 33.098.258-2.314 2.314-.26c2.847-.319 5.11-2.116 6.054-4.81 1.066-3.042.065-6.359-2.547-8.281l-1.874-1.38.932-2.134c1.229-2.806.645-5.895-1.52-8.061-2.167-2.166-5.256-2.75-8.063-1.522l-2.133.933-1.38-1.875C20.644.786 17.327-.218 14.284.848c-2.692.943-4.49 3.207-4.809 6.054l-.26 2.313-2.313.26c-2.847.319-5.11 2.117-6.054 4.81-.938 2.676-.298 5.56 1.669 7.528a7.7 7.7 0 0 0 .877.753l1.875 1.38-.934 2.134c-1.226 2.807-.643 5.896 1.523 8.062 2.166 2.166 5.255 2.749 8.062 1.523l2.134-.934 1.38 1.875c1.917 2.61 5.24 3.612 8.283 2.547 2.693-.945 4.49-3.208 4.809-6.055Z" fill="#FDB599" fill-rule="nonzero"/><path d="M22.882 25.19a1.44 1.44 0 0 1-2.782.746C19.894 25.17 20 20 20 20s-2.492 4.529-3.055 5.091a1.44 1.44 0 0 1-2.036-2.036C15.47 22.492 20 20 20 20s-5.168.106-5.936-.1a1.44 1.44 0 0 1 .745-2.782C15.577 17.324 20 20 20 20s-2.676-4.423-2.882-5.19a1.44 1.44 0 0 1 2.782-.746c.206.768.1 5.936.1 5.936s2.492-4.529 3.055-5.091a1.44 1.44 0 0 1 2.036 2.036C24.53 17.508 20 20 20 20s5.169-.106 5.936.1a1.44 1.44 0 0 1-.745 2.782C24.423 22.676 20 20 20 20s2.675 4.422 2.882 5.19Z" fill="#FFF"/></g><g filter="url(#r)" transform="translate(155 26)"><path d="M34.758 29.822a7.355 7.355 0 0 0 1.418-5.483 7.35 7.35 0 0 0-2.874-4.88c-.426-.321-.987-.584-1.625-.808.645-.201 1.216-.445 1.652-.75 3.342-2.34 4.158-6.964 1.817-10.307-2.34-3.342-6.964-4.157-10.306-1.817-.436.306-.86.758-1.27 1.296.008-.676-.048-1.294-.204-1.803A7.349 7.349 0 0 0 19.763.9a7.355 7.355 0 0 0-5.638-.543C10.223 1.55 8.019 5.695 9.21 9.597c.156.507.447 1.046.83 1.6-.638-.216-1.237-.346-1.768-.355-4.08-.071-7.456 3.19-7.528 7.27a7.368 7.368 0 0 0 1.334 4.363 7.397 7.397 0 0 0 5.936 3.164c.53.01 1.133-.1 1.777-.293-.4.54-.71 1.069-.883 1.57a7.395 7.395 0 0 0 .943 6.66 7.36 7.36 0 0 0 3.645 2.746c3.858 1.329 8.077-.73 9.405-4.588.173-.502.255-1.109.271-1.782.39.549.797 1.007 1.22 1.326a7.352 7.352 0 0 0 5.484 1.418 7.348 7.348 0 0 0 4.88-2.874Z" fill="#F7D30C" fill-rule="nonzero"/><path d="M15.908 12.295a2.055 2.055 0 1 1 3.93-1.202c.332 1.086-.33 5.95-.33 5.95s-3.269-3.662-3.6-4.748Zm-3.192 8.25a2.055 2.055 0 1 1 .072-4.11c1.135.02 5.558 2.153 5.558 2.153s-4.495 1.977-5.63 1.957Zm8.62-2.872s2.474-4.241 3.404-4.892a2.055 2.055 0 1 1 2.358 3.367c-.93.651-5.762 1.525-5.762 1.525Zm-4.373 9.731a2.055 2.055 0 0 1-1.274-2.613c.37-1.073 3.765-4.62 3.765-4.62s.492 4.886.123 5.96a2.056 2.056 0 0 1-2.614 1.273Zm7.57-2.79c-.907-.683-3.23-5.008-3.23-5.008s4.797 1.042 5.704 1.725a2.055 2.055 0 1 1-2.474 3.283Z" fill="#FFF"/></g><g filter="url(#s)" transform="translate(114)"><path d="M54.138 31.546c1.825-6.983-5.994-12.414-8.953-14.184.514-2.934 1.672-12.561-4.468-16.116C34.612-2.288 26.924 3.45 24.6 5.394c-.2-.125-.435-.268-.703-.423C20.83 3.196 13.13-.381 7.85 4.736 2.205 10.204 5.537 18.74 6.805 21.434c-2.16 2.01-8.384 8.592-5.818 15.59.706 1.929 2.011 3.456 3.882 4.538 4.03 2.334 9.607 1.958 11.723 1.707.993 1.88 3.83 6.712 7.888 9.061 1.67.967 3.375 1.413 5.07 1.325 6.905-.358 9.916-9.995 10.67-12.912 2.861-.396 12.086-2.199 13.918-9.197Z" fill="#FF7398" fill-rule="nonzero"/><path d="M27.764 25.603s3.685 8.188.354 8.71c-3.334.521-1.46-8.591-1.46-8.591s-7.112 6.007-8.15 3.028c-1.04-2.979 7.7-4.048 7.7-4.048s-7.987-4.692-5.393-6.836c2.594-2.144 6.216 6.092 6.216 6.092s1.945-8.92 4.82-7.254c2.876 1.664-3.857 7.811-3.857 7.811s8.877-.99 8.37 2.352c-.505 3.342-8.6-1.264-8.6-1.264Z" fill="#FFF"/></g><g transform="translate(181 129)"><rect fill="#E6E6E6" x="9" width="2" height="39" rx="1"/><path fill="#9177FF" fill-rule="nonzero" d="M20 37h-9.43L17 20H6L0 41h8.636L4 60z"/></g><g transform="translate(48 72)"><defs><path d="M84 69.297c-6.792-3.586-16.422-4.148-21.611-2.165-5.775 2.205-10.884 8.451-19.75 5.696-.37-.114-.73.217-.619.58 1.374 4.51 9.008 7.599 11.602 7.7 11.34.442 20.473-8.278 30.378-8.947 9.906.67 19.04 9.389 30.379 8.947 2.594-.101 10.228-3.19 11.601-7.7.111-.363-.25-.694-.618-.58-8.867 2.755-13.976-3.49-19.75-5.696-5.19-1.983-14.82-1.42-21.612 2.165Z" id="t"/></defs><mask id="u" fill="#fff"><use xlink:href="#t"/></mask><use fill="#28354B" xlink:href="#t"/><g mask="url(#u)" fill="#2C1B18"><path d="M-32 0h264v244H-32z"/></g></g><g transform="translate(61 85)"><defs><filter x="-.8%" y="-2.4%" width="101.5%" height="109.8%" filterUnits="objectBoundingBox" id="v"><feOffset dy="2" in="SourceAlpha" result="shadowOffsetOuter1"/><feColorMatrix values="0 0 0 0 0 0 0 0 0 0 0 0 0 0 0 0 0 0 0.2 0" in="shadowOffsetOuter1" result="shadowMatrixOuter1"/><feMerge><feMergeNode in="shadowMatrixOuter1"/><feMergeNode in="SourceGraphic"/></feMerge></filter></defs><g filter="url(#v)" transform="translate(8 8)" fill="#D6EAF2"><path d="M46.25 7.275c2.37.022 3.492.417 3.896 2.89.41 2.506.011 5.322-.46 7.79-.721 3.768-1.92 7.46-4.708 10.214-1.47 1.45-3.261 2.606-5.167 3.395-1.012.42-2.081.722-3.15.952-.312.067-2.979.434-1.343.248-3.817.435-7.958.418-11.146-2.012-3.532-2.692-5.952-6.952-7.015-11.196-.623-2.483-1.93-8.422.459-10.407 2.737-2.274 28.633-1.874 28.633-1.874ZM22.217.49c-5.44.188-9.071 1.144-11.755 6.58-4.917 9.96 3.5 24.899 12.89 28.97 10.976 4.76 23.24-.508 29.043-10.034 3.073-5.044 4.626-12.683 4.526-18.502C56.795.077 51.607-.13 45.51.034L22.218.49ZM79.68 7.273c-2.371.022-3.492.416-3.896 2.89-.41 2.505-.012 5.322.46 7.79.72 3.767 1.919 7.459 4.708 10.213 1.47 1.45 3.261 2.606 5.167 3.396 1.012.419 2.08.722 3.15.951.312.067 2.978.435 1.343.248 3.817.436 7.958.418 11.145-2.011 3.533-2.692 5.952-6.952 7.016-11.196.623-2.483 1.93-8.422-.46-10.407-2.737-2.275-28.632-1.874-28.632-1.874ZM103.713.488c5.44.187 9.071 1.144 11.754 6.579 4.918 9.96-3.5 24.9-12.889 28.97-10.977 4.76-23.24-.508-29.043-10.033C70.46 20.96 68.907 13.32 69.007 7.5 69.135.074 74.323-.132 80.42.031l23.29.457Z"/><path d="M13.197 4.927c-3.412.191-7.31.237-10.507 1.712-3.385 1.562-3.908 5.1.36 5.587 1.92.22 3.845-.143 5.737-.481 1.55-.277 3.655-.187 5.12-.78 2.729-1.103 2.553-6.225-.71-6.038M112.735 4.927c3.412.191 7.31.237 10.507 1.712 3.384 1.562 3.907 5.1-.36 5.587-1.921.22-3.845-.143-5.738-.481-1.55-.277-3.654-.187-5.119-.78-2.73-1.103-2.554-6.225.71-6.038M73.11 7.013c-1.947-2.3-7.019-3.628-10.219-3.628-3.2 0-8.123 1.328-10.069 3.628-.981 1.16-1.015 2.711.686 3.438 2.118.906 4.01-.737 5.705-1.596 2.168-1.098 5.499-.978 7.506 0 1.708.833 3.586 2.502 5.704 1.596 1.701-.727 1.668-2.279.686-3.438"/></g></g></g></g></g></svg>