<svg width="264" height="280" xmlns="http://www.w3.org/2000/svg" xmlns:xlink="http://www.w3.org/1999/xlink"><defs><path d="M124 144.611V163h4c39.765 0 72 32.235 72 72v9H0v-9c0-39.765 32.235-72 72-72h4v-18.389c-17.237-8.189-29.628-24.924-31.695-44.73C38.48 99.058 34 94.052 34 88V74c0-5.946 4.325-10.882 10-11.834V56c0-30.928 25.072-56 56-56s56 25.072 56 56v6.166c5.675.952 10 5.888 10 11.834v14c0 6.052-4.48 11.058-10.305 11.881-2.067 19.806-14.458 36.541-31.695 44.73Z" id="a"/></defs><g fill="none" fill-rule="evenodd"><g mask="url(#react-mask-5)"><g transform="translate(32 36)"><mask id="b" fill="#fff"><use xlink:href="#a"/></mask><use fill="#D0C6AC" xlink:href="#a"/><g mask="url(#b)" fill="#FFDBB4"><path d="M0 0h264v280H0z"/></g><path d="M156 79v23c0 30.928-25.072 56-56 56s-56-25.072-56-56V79v15c0 30.928 25.072 56 56 56s56-25.072 56-56V79Z" fill-opacity=".1" fill="#000" mask="url(#b)"/></g><g transform="translate(0 170)"><defs><path d="M171.32 29.936C205.706 35.366 232 65.14 232 101.052V110H32v-8.948c0-35.914 26.294-65.686 60.682-71.116a23.896 23.896 0 0 0 7.554 13.603l29.085 26.229a4 4 0 0 0 5.358 0l29.085-26.229a24 24 0 0 0 1.234-1.196 23.888 23.888 0 0 0 6.322-12.407Z" id="c"/></defs><mask id="d" fill="#fff"><use xlink:href="#c"/></mask><use fill="#E6E6E6" xlink:href="#c"/><g mask="url(#d)" fill="#E6E6E6"><path d="M0 0h264v110H0z"/></g></g><g fill="#000"><g transform="translate(78 134)"><defs><rect id="e" x="24" y="9" width="60" height="22" rx="11"/></defs><rect fill-opacity=".6" x="22" y="7" width="64" height="26" rx="13"/><mask id="f" fill="#fff"><use xlink:href="#e"/></mask><use fill="#FFF" xlink:href="#e"/><path d="M71 22h-9v12h-4V22h-9v12h-4V22h-9v12h-4V22h-8v-4h8V6h4v12h9V6h4v12h9V6h4v12h9V6h4v12h8.867v4H75v12h-4V22Z" fill="#E6E6E6" mask="url(#f)"/></g><path d="M120 130c0 4.418 5.373 8 12 8s12-3.582 12-8" fill-opacity=".16"/><g fill-opacity=".8" fill-rule="nonzero" fill="#FF5353"><path d="M111.958 100c-2.55 0-5.074 1.98-6.458 3.82-1.39-1.84-3.907-3.82-6.458-3.82-5.49 0-9.042 3.334-9.042 7.641 0 5.73 4.412 9.13 9.042 12.736 1.653 1.236 4.78 4.4 5.166 5.094.386.693 2.106.718 2.584 0 .477-.718 3.51-3.858 5.166-5.094 4.627-3.606 9.042-7.006 9.042-12.736 0-4.307-3.552-7.641-9.042-7.641ZM164.958 100c-2.55 0-5.074 1.98-6.458 3.82-1.39-1.84-3.907-3.82-6.458-3.82-5.49 0-9.042 3.334-9.042 7.641 0 5.73 4.412 9.13 9.042 12.736 1.653 1.236 4.78 4.4 5.166 5.094.386.693 2.106.718 2.584 0 .477-.718 3.51-3.858 5.166-5.094 4.627-3.606 9.042-7.006 9.042-12.736 0-4.307-3.552-7.641-9.042-7.641Z"/></g><g fill-opacity=".6"><path d="m107.234 102.422-.911.402c-5.242 2.081-13.188 1.209-18.046-1.123-.567-.272-.18-1.153.402-1.108 14.919 1.151 24.963-8.146 28.375-14.44.101-.187.407-.208.482-.034 2.308 5.319-4.45 13.985-10.302 16.303ZM156.766 102.422l.911.402c5.242 2.081 13.188 1.209 18.046-1.123.567-.272.18-1.153-.402-1.108-14.919 1.151-24.963-8.146-28.375-14.44-.101-.187-.407-.208-.482-.034-2.308 5.319 4.45 13.985 10.302 16.303Z"/></g></g><defs><path id="g" d="M0 0h264v280H0z"/><path d="M156 180.611c17.53-8.328 30.048-25.496 31.791-45.744C193.57 134.002 198 129.02 198 123v-13c0-5.946-4.325-10.882-10-11.834V92c0-30.928-25.072-56-56-56S76 61.072 76 92v6.166c-5.675.952-10 5.888-10 11.834v13c0 6.019 4.43 11.002 10.209 11.867 1.743 20.248 14.26 37.416 31.791 45.744V199h-4c-39.765 0-72 32.235-72 72v9h200v-9c0-39.765-32.235-72-72-72h-4v-18.389ZM0 0h264v280H0V0Z" id="i"/><rect id="k" x="0" y="0" width="112" height="150" rx="56"/></defs><mask id="h" fill="#fff"><use xlink:href="#g"/></mask><g mask="url(#h)"><g><mask id="j" fill="#fff"><use xlink:href="#i"/></mask><path d="M116.18 40H146c25.405 0 46 20.595 46 46v68.109c0 26.541 18.759 50.24 30.61 71.943 11.851 21.702-7.355 42.19-26.84 50.717A38.509 38.509 0 0 1 180.332 280h-45.068c-56.352 0-65.046-63.69-67.566-133.496l2.52-62.36C71.213 59.48 91.497 40 116.179 40Z" fill="#CCB55A" mask="url(#j)"/></g><g transform="translate(76 36)"><mask id="l" fill="#fff"><use xlink:href="#k"/></mask><path d="M98.801 19.94C107.027 29.484 112 41.91 112 55.5v10-4c0-15.74-6.672-29.92-17.342-39.87-30.738 11.047-56.644 11.173-77.717.378C6.505 31.937 0 45.958 0 61.5v4-10c0-13.607 4.987-26.05 13.233-35.6-3.834-3.04-4.974-11.713 6.234-15.023 11.845-3.499 9.84-18.079 27.99-20.803C65.61-18.65 63.972-11.375 81.03-12.35c17.057-.974 22.607-16.763 25.82-12.724 12.74 16.01 9.572 34.414-8.048 45.014Z" fill-opacity=".16" fill="#000" mask="url(#l)"/></g><path d="M89.878 52.361c22.15 12.866 49.939 12.866 83.366 0 14.53-7.772 25.087-23.319 8.707-43.398-2.169-2.658-10.707 6.713-27.6 7.687-16.893.975-13.271-3.3-31.248-.576-17.977 2.724-15.991 17.304-27.722 20.803-11.73 3.498-9.803 12.987-5.503 15.484Z" fill="#E0C863"/><g transform="translate(61 85)"><defs><filter x="-.8%" y="-2.1%" width="101.6%" height="108.3%" filterUnits="objectBoundingBox" id="m"><feOffset dy="2" in="SourceAlpha" result="shadowOffsetOuter1"/><feColorMatrix values="0 0 0 0 0 0 0 0 0 0 0 0 0 0 0 0 0 0 0.1 0" in="shadowOffsetOuter1"/></filter><path d="M80.465 16.394C84.38 8.46 92.553 3 102 3c8.92 0 16.703 4.866 20.84 12.088.21-.057.432-.088.66-.088h8a2.5 2.5 0 1 1 0 5h-6.537A23.998 23.998 0 0 1 126 27c0 13.255-10.745 24-24 24S78 40.255 78 27c0-1.422.124-2.815.36-4.169C78.277 18.455 74.915 15 70.863 15c-3.736 0-6.887 2.94-7.42 6.83.365 1.665.558 3.395.558 5.17 0 13.255-10.745 24-24 24S16 40.255 16 27c0-2.435.363-4.785 1.037-7H10.5a2.5 2.5 0 1 1 0-5h8c.228 0 .45.03.66.088C23.297 7.866 31.08 3 40 3c9.352 0 17.455 5.35 21.416 13.155C63.493 13.039 66.949 11 70.862 11c4.013 0 7.545 2.144 9.603 5.394ZM40 47c11.046 0 20-8.954 20-20S51.046 7 40 7s-20 8.954-20 20 8.954 20 20 20Zm62 0c11.046 0 20-8.954 20-20s-8.954-20-20-20-20 8.954-20 20 8.954 20 20 20Z" id="n"/></defs><use fill="#000" filter="url(#m)" xlink:href="#n"/><use fill="#252C2F" xlink:href="#n"/></g></g></g></g></svg>