<svg width="264" height="280" xmlns="http://www.w3.org/2000/svg" xmlns:xlink="http://www.w3.org/1999/xlink"><defs><path d="M124 144.611V163h4c39.765 0 72 32.235 72 72v9H0v-9c0-39.765 32.235-72 72-72h4v-18.389c-17.237-8.189-29.628-24.924-31.695-44.73C38.48 99.058 34 94.052 34 88V74c0-5.946 4.325-10.882 10-11.834V56c0-30.928 25.072-56 56-56s56 25.072 56 56v6.166c5.675.952 10 5.888 10 11.834v14c0 6.052-4.48 11.058-10.305 11.881-2.067 19.806-14.458 36.541-31.695 44.73Z" id="a"/></defs><g fill="none" fill-rule="evenodd"><g mask="url(#react-mask-5)"><g transform="translate(32 36)"><mask id="b" fill="#fff"><use xlink:href="#a"/></mask><use fill="#D0C6AC" xlink:href="#a"/><g mask="url(#b)" fill="#D08B5B"><path d="M0 0h264v280H0z"/></g><path d="M156 79v23c0 30.928-25.072 56-56 56s-56-25.072-56-56V79v15c0 30.928 25.072 56 56 56s56-25.072 56-56V79Z" fill-opacity=".1" fill="#000" mask="url(#b)"/></g><g transform="translate(0 170)"><defs><path d="M133.96.295c36.976 3.03 66.04 34 66.04 71.757V81H0v-8.948C0 33.952 29.592 2.765 67.045.22 67.015.593 67 .97 67 1.348c0 11.863 14.998 21.48 33.5 21.48 18.502 0 33.5-9.617 33.5-21.48 0-.353-.013-.704-.04-1.053Z" id="c"/></defs><g transform="translate(32 29)"><mask id="d" fill="#fff"><use xlink:href="#c"/></mask><use fill="#E6E6E6" xlink:href="#c"/><g mask="url(#d)" fill="#262E33"><path d="M-32-29h264V81H-32z"/></g><g opacity=".6" mask="url(#d)" fill-opacity=".16" fill="#000"><ellipse cx="40.5" cy="27.848" rx="39.635" ry="26.914" transform="translate(60 -25)"/></g></g><path d="M100.785 29.122C62.512 30.804 32 62.365 32 101.052V110h69.362C97.96 97.92 96 83.709 96 68.5c0-14.327 1.74-27.769 4.785-39.378ZM163.638 110H232v-8.948c0-38.345-29.975-69.69-67.771-71.878C167.265 40.77 169 54.194 169 68.5c0 15.209-1.96 29.42-5.362 41.5Z" fill="#3A4C5A"/><path d="m181 86 9.556-7.167a4 4 0 0 1 4.856.043L202 84l-21 2Z" fill="#E6E6E6"/><path d="M101 28c-4 19.333-2.333 46.667 5 82H90L76 74l6-9-6-6 19-30c2.028-.63 4.028-.964 6-1ZM163 28c4 19.333 2.333 46.667-5 82h16l14-36-6-9 6-6-19-30c-2.028-.63-4.028-.964-6-1Z" fill="#2F4351"/></g><g fill="#000"><g transform="translate(78 134)"><defs><path d="M34.008 12.602c1.12 10.49 4.227 19.392 19.988 19.398 15.762.006 18.92-8.958 19.998-19.495.087-.848-.82-1.505-1.957-1.505-6.686 0-9.367 1.495-18.048 1.5-8.68.005-13.232-1.5-17.897-1.5-1.143 0-2.196.552-2.084 1.602Z" id="e"/><path d="M59.917 36H60a6 6 0 1 0 12 0v-5a6 6 0 0 0-6-6H42a6 6 0 0 0-6 6v7a6 6 0 1 0 12 0v-2h.083a6.002 6.002 0 0 1 11.834 0Z" id="g"/><filter x="-1.4%" y="-2.6%" width="102.8%" height="105.3%" filterUnits="objectBoundingBox" id="h"><feOffset dy="-1" in="SourceAlpha" result="shadowOffsetInner1"/><feComposite in="shadowOffsetInner1" in2="SourceAlpha" operator="arithmetic" k2="-1" k3="1" result="shadowInnerInner1"/><feColorMatrix values="0 0 0 0 0 0 0 0 0 0 0 0 0 0 0 0 0 0 0.1 0" in="shadowInnerInner1"/></filter></defs><mask id="f" fill="#fff"><use xlink:href="#e" transform="matrix(1 0 0 -1 0 43)"/></mask><use fill-opacity=".7" transform="matrix(1 0 0 -1 0 43)" xlink:href="#e"/><rect fill="#FFF" mask="url(#f)" x="39" width="31" height="16" rx="5"/><use fill="#88C553" xlink:href="#g"/><use filter="url(#h)" xlink:href="#g"/></g><path d="M120 130c0 4.418 5.373 8 12 8s12-3.582 12-8" fill-opacity=".16"/><g transform="translate(76 90)"><circle fill-opacity=".6" cx="30" cy="22" r="6"/><path d="M25 27s-6 7.27-6 11.27a6 6 0 1 0 12 0c0-4-6-11.27-6-11.27Z" fill="#92D9FF" fill-rule="nonzero"/><circle fill-opacity=".6" cx="82" cy="22" r="6"/></g><g fill-opacity=".6"><path d="m98.766 83.578.911-.402c5.242-2.081 13.188-1.209 18.046 1.123.567.272.18 1.153-.402 1.108-14.919-1.151-24.963 8.146-28.375 14.44-.101.187-.407.208-.482.034-2.308-5.319 4.45-13.985 10.302-16.303ZM165.234 83.578l-.911-.402c-5.242-2.081-13.188-1.209-18.046 1.123-.567.272-.18 1.153.402 1.108 14.919-1.151 24.963 8.146 28.375 14.44.101.187.407.208.482.034 2.308-5.319-4.45-13.985-10.302-16.303Z"/></g></g><defs><path id="i" d="M0 0h264v280H0z"/></defs><mask id="j" fill="#fff"><use xlink:href="#i"/></mask><g mask="url(#j)"><g transform="translate(48 72)"><defs><path d="M84 69.297c-6.792-3.586-16.422-4.148-21.611-2.165-5.775 2.205-10.884 8.451-19.75 5.696-.37-.114-.73.217-.619.58 1.374 4.51 9.008 7.599 11.602 7.7 11.34.442 20.473-8.278 30.378-8.947 9.906.67 19.04 9.389 30.379 8.947 2.594-.101 10.228-3.19 11.601-7.7.111-.363-.25-.694-.618-.58-8.867 2.755-13.976-3.49-19.75-5.696-5.19-1.983-14.82-1.42-21.612 2.165Z" id="k"/></defs><mask id="l" fill="#fff"><use xlink:href="#k"/></mask><use fill="#28354B" xlink:href="#k"/><g mask="url(#l)" fill="#B58143"><path d="M-32 0h264v244H-32z"/></g></g><g transform="translate(61 85)"><defs><filter x="-.8%" y="-2.1%" width="101.6%" height="108.3%" filterUnits="objectBoundingBox" id="m"><feOffset dy="2" in="SourceAlpha" result="shadowOffsetOuter1"/><feColorMatrix values="0 0 0 0 0 0 0 0 0 0 0 0 0 0 0 0 0 0 0.1 0" in="shadowOffsetOuter1"/></filter><path d="M80.465 16.394C84.38 8.46 92.553 3 102 3c8.92 0 16.703 4.866 20.84 12.088.21-.057.432-.088.66-.088h8a2.5 2.5 0 1 1 0 5h-6.537A23.998 23.998 0 0 1 126 27c0 13.255-10.745 24-24 24S78 40.255 78 27c0-1.422.124-2.815.36-4.169C78.277 18.455 74.915 15 70.863 15c-3.736 0-6.887 2.94-7.42 6.83.365 1.665.558 3.395.558 5.17 0 13.255-10.745 24-24 24S16 40.255 16 27c0-2.435.363-4.785 1.037-7H10.5a2.5 2.5 0 1 1 0-5h8c.228 0 .45.03.66.088C23.297 7.866 31.08 3 40 3c9.352 0 17.455 5.35 21.416 13.155C63.493 13.039 66.949 11 70.862 11c4.013 0 7.545 2.144 9.603 5.394ZM40 47c11.046 0 20-8.954 20-20S51.046 7 40 7s-20 8.954-20 20 8.954 20 20 20Zm62 0c11.046 0 20-8.954 20-20s-8.954-20-20-20-20 8.954-20 20 8.954 20 20 20Z" id="n"/></defs><use fill="#000" filter="url(#m)" xlink:href="#n"/><use fill="#252C2F" xlink:href="#n"/></g></g></g></g></svg>